<svg xmlns="http://www.w3.org/2000/svg" viewBox="0 0 149.9 249.1"><defs><style>.cls-1{fill:#ff7ba5;}.cls-2{fill:#606060;}.cls-3,.cls-8{fill:none;}.cls-3,.cls-5{stroke:#4b005c;}.cls-3,.cls-5,.cls-8{stroke-miterlimit:10;}.cls-3{stroke-width:0.43px;}.cls-4{fill:#4b005c;}.cls-5{fill:#fff;stroke-width:0.22px;}.cls-6{fill:#455749;}.cls-7{fill:#010202;}.cls-8{stroke:#191919;stroke-width:0.16px;}</style></defs><title>Ресурс 1</title><g id="Слой_2" data-name="Слой 2"><g id="_1_SECTION" data-name="1 SECTION"><path class="cls-1" d="M30.06,249s-1.3-16.76,0-24-1-24.31,2.92-32.31,1.63-8.77,1.63-8.77-12.36,10.77-23.42,15.23c0,0-6,4.16-8.78-3.23s-3.09-12.15-1.3-21.69S7,145.63,13.31,133,20,110.4,23.39,103.17s21-16,21.79-16.16,25.29-5.46,27.08-7.31S77.18,66.25,76.85,65s-7.76-9.3-9.23-12.68-1.26-7.61-4.71-11.41c-6-6.61-1.95-17.1-1.47-19.14C63.23,14.24,69.57,9.16,71,8.7S81.77,6.51,83.39,7.59s7.54-.25,9.65.21,6.51.47,8.19,1.68c2.76,2,8.07,3.68,9,4.45s4.2,6.92,4.66,10.62a41.85,41.85,0,0,1-.49,10.92c-.24,1.09-4.88,15.08-4.88,15.08s-3.58,11.38-6,17.23S100,82.59,100,82.59c-.22-.34,1.13-1.41,1.94-.42,1.22,1.49,4,4,5.35,7.45,2.06,5.43,6.5,9.56,8.49,10.33,4.16,1.61,10.73,10,11.71,12.14a69.14,69.14,0,0,1,4.23,14.31c.62,4.49,1,17.29,3.09,22.62,2.45,6.22,7.64,26,7.64,26l4.72,18s3.41,15.54,1.78,26.62S139.17,249,139.17,249H116.56s9.27-51.84,9.76-53.07-7.32-4-10.24-17.23-2.48-16.1-2.48-16.1l-.12.41s-1,11.38-2,15.07-2,6.93-1.46,8.31,9.43,14.47,10.08,17.08,4.88,8.46,4.88,8.46l-6.18,35.39-.1,1.68Z"/><path class="cls-2" d="M111.64,14.92C108.75,11,99.85,3.52,96.28,2.41,87-.5,84.65.11,81.05,1.24,73.83,3.5,71.38,6.5,66.38,11.36c-4.09,4-7,12.94-7.45,20-.35,5.62,4.75,13.16,6.14,15.17s2,6,3.21,7.93c.72,1.17,5,8.38,5,8.38l3,4.06L75,72.27,73.57,76l-1.22,3a11.74,11.74,0,0,0,2.55,3.09c1.18.74,4.91,3.06,12.18,4s16.44-2.48,16.44-2.48-1-4.42-.3-7.61c.5-2.14,2.43-7.32,3.31-11.17a52.24,52.24,0,0,1,2.2-7.56c1.09-3,2.81-5.79,3.76-8.31S114,44,115.38,35.35,114.53,18.82,111.64,14.92ZM93.21,42.65a36.11,36.11,0,0,0-10.57,3.17,58.83,58.83,0,0,1-5.84,2.35c-.72.23-4.22,1.47-4.77,1.71-5.49,2.46-10-5.45-4.41-8.73,3.54-2.09,7.28-2.33,11.06-4,4.3-1.86,9.69-4.38,14.47-4.44C99.5,32.67,99.52,42.09,93.21,42.65Z"/><path class="cls-3" d="M108.4,150.89a1.26,1.26,0,0,1,1.76.62c.63,1.23-.35,2.26-1.76,1.43S108.4,150.89,108.4,150.89Z"/><path class="cls-4" d="M85,203.52a2.5,2.5,0,0,0,1-3,2.8,2.8,0,0,0-3.16-1.44,2.71,2.71,0,0,0-2.25,2.18,2.11,2.11,0,0,0,1.84,2.19c.32.05.64-.39.22-.46a1.71,1.71,0,0,1-1.43-1.65,2,2,0,0,1,2-1.83,2.14,2.14,0,0,1,2.23,1.26,2.06,2.06,0,0,1-.86,2.43c-.33.27.17.49.42.29Z"/><path class="cls-3" d="M72.54,79.34c-4,2.74-23.55,6.15-28.18,8-5,2-15.6,9-19.25,13.42s-7.22,21.42-7.22,21.42a112.76,112.76,0,0,1-7.27,17.33C6,148.35.47,179.9.26,182.89S1.73,196,4.38,198.75s3.53,1.46,7.77,0,10.32-5.66,12.36-7,10.61-8.52,14-11.18,12.36-16,13.87-18.06,11.28-12.82,11.5-13.64.54-.82,1.95-.72,8.67-1.23,13.22-2.46,4.48-.43,6.72-.23a30.24,30.24,0,0,0,5.21.16c1-.12,3.33.55,4.83-.12s2.86-.94,3-1.5c.41-2-2-2.17-2.56-2.48a2.47,2.47,0,0,0-1.44-.12,38.16,38.16,0,0,0-4.45-.09c-1.26.13-3.91.34-5.17-.19a9.83,9.83,0,0,0-2.35-.66,4.72,4.72,0,0,1,1.17.31c.09,0,.84.22,1.18.35,1.47.53,3.49.31,5.17.19,2.15-.16,4,.23,4.91,0s2.12.38,3.58,1,2.93.19,5,.42a2.83,2.83,0,0,0,3.17-1.5,2,2,0,0,0-.77-1.77c-.49-.34-1.58-.61-2.4-1.11a16.44,16.44,0,0,0-4.51-1c-1.06-.12-5.33-1.42-4.88-1.27.23.07-3.33-.32-4.75-.27a40.74,40.74,0,0,1-7.12-1.31c-.53-.27-.41-.81,2.07-.31s9.52-.07,10.45-.07,3.82.27,4.43.34,2,.93,3.34.85,3.66.27,5,0,2.4-1.27,2.15-2a3.29,3.29,0,0,0-1.87-1.62,40.1,40.1,0,0,0-4.35-1.38,82.27,82.27,0,0,1-8.17-1.58,11.86,11.86,0,0,0-3.54-.62c-.48,0-7.27-.3-8.86-.23s-1.62-.27-1.62-.27a7.63,7.63,0,0,1,2.39-1,24.61,24.61,0,0,0,4.68-1.5,20.94,20.94,0,0,1,3.21-.84c.65-.23,4.8-.58,5.73-.73s2.52-.89,3.05-1,2.44-.85,2.12-1.77-.57-1.93-2.12-1.89-2.23-.27-2.92-.19-3.83.54-4.4.61-3.21-.15-4,0A38.08,38.08,0,0,0,84.65,121a16,16,0,0,1-3.17.92l-.66.12s-3.29,1.38-5,1.88-3,0-4.87.66-4.92,1.61-4.92,1.61"/><path class="cls-3" d="M80.82,122s2.4-2.2,2.69-3.35.65-2.27,0-3a2.63,2.63,0,0,0-2.52-.89c-.73.28-.94.89-1.34,1.2s-3.18,1.76-3.83,2.19a21.63,21.63,0,0,0-3.21,2.31,7,7,0,0,1-3.21,1.77,18.72,18.72,0,0,0-4.63,1.57,22.66,22.66,0,0,0-6.06,5.62,80.34,80.34,0,0,1-6.55,8.19,30.56,30.56,0,0,0-3.61,3c-.69.89-2,2.58-3.54,4.27s-7.28,7.27-8.94,8.66-5,2.57-6.71,3.65A47,47,0,0,0,24,161.05c-1.62,1.42-6.46,4.23-8,4.58s-2.65.57-3,1-.21,0-.21,0"/><path class="cls-3" d="M89.54,149.46c0,.31,1.84,6.36,4.12,8.82s7.54,7.61,13.76,6.46,9.33-3.32,11.6-7.56,2.17-9.16,1.09-11a24.74,24.74,0,0,0-3.15-4.52"/><path class="cls-3" d="M74.79,150s-.75,4.62-4.44,6.87-8.23,4.37-15.23,2.34"/><path class="cls-3" d="M41.62,132.86s-1.89,7.92-3.25,11.67c-.94,2.62-6.61,11.33-7.81,12"/><path class="cls-3" d="M113.71,162.89s-1.3,12.64-1.95,15.08-1.72,6.48-1.59,7.39,2.75,5.28,4,7.19,6.23,11.1,6.72,12.1,3,5.16,3,5.16l-4.8,26.43s-3.08,12.69-2.27,12.65"/><path class="cls-3" d="M45.31,138.89s-2.16,5.12-1.46,7.23"/><path class="cls-3" d="M34.85,183.82a4,4,0,0,1,.39,3.59c-.72,2.22-2.39,5.49-2.91,7.48s-1.53,12.38-1.55,14.17.16,11.47,0,12.2-1,9.26-1,10.56.55,17.07.55,17.07"/><path class="cls-3" d="M113.62,163.76s-.51,4.48,2.88,15.62,7.78,13.93,10.06,16.44l-2.69,14"/><path class="cls-3" d="M103,83.53a67,67,0,0,1,6.14,10.09c.8,1.79,5.2,5.6,8.35,7.62,3.72,2.4,9.74,10.58,10.35,11.86a56.58,56.58,0,0,1,4.59,20.44c.51,11.12,1.86,15,2.72,17.2,1.19,3,12.4,43.14,12.4,43.14s4.54,18.72.29,31.69-8.47,23.32-8.47,23.32"/><path class="cls-5" d="M76.39,43.93s-.32-1.06-2.19-1a11.39,11.39,0,0,0-4.8,1A6.39,6.39,0,0,0,67.61,46s1.47.9,2.12.74,4.79-1.14,5.12-1.22S76.39,43.93,76.39,43.93Z"/><path class="cls-3" d="M73,41.46a7.55,7.55,0,0,1,1.87.44"/><path class="cls-6" d="M74.2,42.91a6,6,0,0,1-.33,1.94c-.59,1.76-3,.95-3,.95a2.35,2.35,0,0,1-1.49-1.87c0-.21,1.67-.61,1.67-.61a5.82,5.82,0,0,0,.36.69c.25.41,1.82.44,1.14-1"/><path class="cls-5" d="M95.39,36.86a6.77,6.77,0,0,0-2.06-.76c-2.33-.33-5.73,1.44-5.73,1.44a5.67,5.67,0,0,0-.83.94c-.21.38-1,1.52-1,1.52a8,8,0,0,0,2.42.92,39.31,39.31,0,0,0,5.06-1.52C94.08,39.13,95.39,36.86,95.39,36.86Z"/><path class="cls-6" d="M90.18,36.59s2.08-.57,2.27-.38.48.32.45,1.7-1.4,1.85-1.83,2a3.48,3.48,0,0,1-2-.68,3.39,3.39,0,0,1-.92-1.85l2.08-.75"/><path class="cls-3" d="M94.42,35.34a8,8,0,0,0-4.07-.54,6.66,6.66,0,0,0-3.9,2.38l-.71.87"/><path class="cls-3" d="M67.29,44.85s.73-2.06,1.95-2.63A9.58,9.58,0,0,1,73,41.46"/><ellipse class="cls-7" cx="72" cy="43.64" rx="0.7" ry="0.62"/><path class="cls-7" d="M91.13,36.21c.56,0,.47.43.51,1.11s-.79,1-1.32.93a1.3,1.3,0,0,1-.9-1.28C89.42,36.78,90.75,36.21,91.13,36.21Z"/><path class="cls-7" d="M72.81,43c.55.14.36.53.23,1.21s-1,.79-1.51.58A1.31,1.31,0,0,1,71,43.33,3.53,3.53,0,0,1,72.81,43Z"/><path class="cls-8" d="M94.51,32.89s-2.34-11.72-5.68-16.6S82.57,3.48,82.74,2,84.92.08,84.92.08s-5.84-.14-3.4,8.32,5.36,13,5.69,14.31,2.87,10.22,2.87,10.22l-5.65,1.79s-2.64-9.81-3.51-14-2.49-9.11-2.25-12.2.81-7.3,3.53-7.89c2.27-.49.64-1.18-1.93.82A12.56,12.56,0,0,0,78.65,3c-3.39,3.83-3.88,9.52-3.8,12.93S77.78,29.7,77.78,29.7l2,6.83-4.55,1.73s-3.09-8.48-3.46-11.48-.69-8.62,0-11.79,1.83-8,3-9.52A28.83,28.83,0,0,1,78.67,1.9a15.86,15.86,0,0,0-8.54,7.64c-3.17,6-2.84,13.33-2.84,14.8s-.17,8,.81,9.67a48.23,48.23,0,0,1,2.38,5.79l-3.91,1.8s-3-4.66-3.19-8.16-1-7.64,0-10.49,3.42-10.4,3.42-10.4L68.87,9"/><path class="cls-8" d="M70.17,50.31s7.38,12.08,8.49,13.27,1.16,4,0,8-2.83,10.55-2.83,10.55l3.69,1.76s4.6-17.51,4.06-19.46S74.89,49,74.89,49l5.2-2s5.55,12.77,5.65,14.18a46.32,46.32,0,0,1,0,7.92c-.32,3.14-2.34,16-2.34,16l3.93.71s2.12-24.06,2.16-26.12-3.4-15.07-3.4-15.07L90.6,43.1s2.09,12.13,2.3,14.84-.54,16.81-.76,18.43-1,9.57-1,9.57l4.22-.46s-.32-8,0-10.41S98.11,52.62,96,41.6"/><path class="cls-8" d="M84.92.08s8.3,11.14,9.5,14.5,5,17,5.42,20.14.86,23.79,0,29a106.09,106.09,0,0,0-1,15.71c.11,1.62.65,4.86.65,4.86"/><path class="cls-8" d="M87.85.08a60.76,60.76,0,0,1,9,9.08c3.85,5,6.13,13.22,6.78,16.8s2,12.92,1.19,17.2S103,62.5,103,62.5s-1.46,10.08-1.46,11.59.64,9.72.64,9.72"/><path class="cls-8" d="M94.87,1.63a35.58,35.58,0,0,1,9.19,10.56c3.8,6.73,4.88,16.62,5,20.67s.54,12-.43,16.63-2.17,11.16-2.82,13-1.38,9.55-1.38,9.55"/><path class="cls-8" d="M106.16,8.91s5.6,8.92,6.14,14.56a130.16,130.16,0,0,1,0,19.44C111.87,45.48,110,53.5,110,53.5"/></g></g></svg>